<svg width="504" height="418" viewBox="0 0 504 418" fill="none" xmlns="http://www.w3.org/2000/svg">
<path d="M123.867 46.2C106.667 54.0666 105.6 78.7333 122.4 86.3333C129.867 89.8 136.4 89.6666 143.467 85.9333L149.333 82.7333L157.067 85.4C162.267 87.1333 165.2 88.8666 166 90.8666C166.667 92.3333 168.667 103 170.667 114.333C174.8 138.867 176.133 141.533 185.067 142.067C189.867 142.333 191.867 141.8 193.867 139.8C196.667 137 197.333 137 319.867 137C387.6 137 444.133 136.6 445.333 136.2C448.4 135 451.467 128.2 450.533 124.467C450.133 122.6 448.533 120.067 447.067 118.733C444.533 116.467 438.133 116.333 318 115.933L191.6 115.667L189.467 103.267C186.133 85.2666 183.867 77.9333 180.133 74.4666C178.267 72.7333 171.6 69.4 165.333 67C154.667 63 153.467 62.2 151.333 57.5333C148.533 51.1333 145.067 47.9333 138.4 45.5333C131.733 43.2666 130.4 43.2666 123.867 46.2Z" fill="black"/>
<path d="M52.1333 119.667C45.6 120.867 43.7333 123.4 42.6666 132.2C42.1333 135.933 42 168.333 42.2666 204.067L42.6666 268.867L45.7333 271.933C48.6666 275 49.3333 275 85.7333 275.4C121.867 275.8 122.8 275.8 126.4 273C130.933 269.4 130.933 265.8 126.667 261.533L123.333 258.2L96.2666 258.333C81.4666 258.467 67.0666 258.467 64.4 258.467L59.3333 258.333V231.8V205.133L86.8 204.733C112.4 204.333 114.4 204.2 116.133 201.667C118.267 198.867 117.733 192.2 115.2 189.667C114.4 188.867 102.8 188.067 86.9333 187.667L60 187V161.667V136.333L92.6666 136.067C124.133 135.667 125.467 135.533 127.733 132.867C128.933 131.267 130 129 130 127.667C130 126.333 128.933 124.067 127.733 122.467C125.467 119.933 123.733 119.8 91.3333 119.133C72.6666 118.867 54.9333 119 52.1333 119.667Z" fill="black"/>
<path d="M168.133 155.133C157.2 158.6 146.533 167.133 140.4 177C129.467 195.133 133.067 221.667 148.667 236.733C158.4 246.067 167.067 249.533 182.133 250.067C194.133 250.6 195.467 250.333 202.8 246.6C212.267 241.667 220.667 233.8 220.667 229.667C220.667 226.067 216.8 222.333 212.8 222.333C211.2 222.333 206.933 224.467 203.2 227C194.667 232.867 187.467 234.867 178.533 233.667C159.2 231.267 146.133 211.267 151.733 192.733C156.133 178.333 167.333 170.2 182.4 170.2C191.733 170.2 197.333 172.067 204.533 177.533C212.4 183.4 220.667 180.867 220.667 172.6C220.667 168.6 214.4 163.4 202.667 157.4C194.267 153 177.867 151.933 168.133 155.133Z" fill="black"/>
<path d="M264 154.733C249.733 158.467 238 168.333 231.733 181.667C228.533 188.6 228 191.4 228 201.667C228 212.333 228.533 214.6 232.133 222.333C236.933 232.467 245.2 241.133 254.667 246.067C263.467 250.6 280.667 251.667 291.467 248.467C305.067 244.467 318 231.8 322.933 217.667C324.267 213.533 325.2 207.133 325.2 200.867C325.2 192.467 324.533 189.4 320.933 181.933C310.8 160.2 287.067 148.867 264 154.733ZM289.333 172.2C295.467 174.733 301.733 180.733 305.067 186.867C308.8 193.8 309.2 210.2 305.733 216.467C298 230.6 279.733 237.933 265.333 232.467C258.933 229.933 249.867 221.933 246.8 215.8C240.4 203.4 243.867 188.2 255.6 177.667C265.067 169.267 277.333 167.267 289.333 172.2Z" fill="black"/>
<path d="M358.8 155.8C351.6 158.333 350.667 158.333 346.667 156.467C341.067 153.8 340.4 153.8 336.933 157C334 159.8 334 160.2 334 202.867V246.067L337.333 248.2C341.6 251 345.067 250.867 347.733 247.933C349.733 245.8 350 241.667 350 217.533C350 201.4 350.667 187.4 351.467 184.333C352.267 181.533 354.933 177.133 357.333 174.733C361.2 170.867 362.667 170.333 368.4 170.333C373.733 170.333 376 171.133 379.2 173.8C386.4 179.8 386.667 180.733 387.333 215L388 247L391.867 248.867C395.333 250.467 396.267 250.467 399.2 248.867L402.667 246.867L403.333 215C403.867 191 404.533 182.067 405.867 179.267C408.667 173.933 415.2 170.333 422.533 170.333C427.733 170.333 429.467 171.133 433.733 174.867L438.667 179.4L439.333 212.867C440 244.2 440.133 246.333 442.667 248.2C446.533 251.133 450.4 250.733 453.867 247.133C456.8 243.933 456.933 243.667 456.4 211.533C455.867 175.8 455.6 173.933 447.333 164.467C435.733 151.4 415.333 149.667 401.067 160.6L395.067 165.267L390.8 161.133C382.933 153.533 370.933 151.533 358.8 155.8Z" fill="black"/>
<path d="M404.4 259.267C403.2 260.6 401.6 263.8 400.8 266.467L399.2 271.4L376.267 272.2C363.6 272.733 320.933 273.8 281.333 274.867C201.467 276.867 207.067 277.4 205.467 267.8C205.067 265.133 203.6 261.667 202.133 260.467C199.867 258.333 198.933 258.333 194.4 259.8C191.6 260.6 188.533 261.667 187.467 261.933C186 262.333 185.733 264.333 186.4 271.667C187.467 284.067 190.933 291.667 197.067 294.867C201.733 297.4 203.467 297.533 278.267 295.8C394.667 293.267 406.667 292.6 410.933 289.533C418.933 283.533 423.6 265.133 418.667 259.667C415.6 256.2 407.2 256.067 404.4 259.267Z" fill="black"/>
<path d="M205.467 321C199.467 322.867 191.734 331.133 190.134 337.533C187.467 348.2 192.934 360.333 202.534 364.867C209.734 368.467 214.667 368.333 222 364.6C228.534 361.267 232 357.267 234.667 349.533C236 345.533 237.334 344.2 240.267 343.533C242.267 343 267.467 342.6 296.267 342.467L348.534 342.333L350.534 339.4C353.067 335.8 353.334 329 350.934 325.8C348.267 322.067 340.934 321.267 313.734 321.667C248.8 322.6 223.734 322.333 218.667 321.133C212.4 319.533 210.667 319.533 205.467 321Z" fill="black"/>
<path d="M378.933 320.6C376.8 320.867 372.8 323.533 370 326.333C357.866 338.467 360.533 357.133 375.333 364.733C386.533 370.6 400.533 366.2 405.866 355.133C411.2 344.2 408.133 330.2 398.933 324.067C394.4 321 385.6 319.4 378.933 320.6Z" fill="black"/>
</svg>
